<svg width="32" height="32" viewBox="0 0 32 32" fill="none" xmlns="http://www.w3.org/2000/svg">
<path d="M17.4697 6.47015C17.3292 6.61078 17.2503 6.8014 17.2503 7.00015C17.2503 7.1989 17.3292 7.38953 17.4697 7.53015L25.1884 15.2502L4.99968 15.2502C4.80077 15.2502 4.61001 15.3292 4.46935 15.4698C4.3287 15.6105 4.24968 15.8012 4.24968 16.0002C4.24968 16.1991 4.3287 16.3898 4.46935 16.5305C4.61001 16.6711 4.80077 16.7502 4.99968 16.7502H25.1884L17.4697 24.4702C17.3372 24.6123 17.2651 24.8004 17.2685 24.9947C17.2719 25.189 17.3506 25.3744 17.4881 25.5118C17.6255 25.6492 17.8109 25.7279 18.0052 25.7313C18.1995 25.7348 18.3875 25.6626 18.5297 25.5302L27.5297 16.5302C27.6701 16.3895 27.749 16.1989 27.749 16.0002C27.749 15.8014 27.6701 15.6108 27.5297 15.4702L18.5297 6.47015C18.3891 6.3297 18.1984 6.25081 17.9997 6.25081C17.8009 6.25081 17.6103 6.3297 17.4697 6.47015Z" fill="#0561A3"/>
</svg>
