<svg width="12" height="12" viewBox="0 0 12 12" fill="none" xmlns="http://www.w3.org/2000/svg">
<path d="M6.5625 8.4375C6.5625 8.54875 6.52951 8.65751 6.4677 8.75001C6.4059 8.84251 6.31804 8.91461 6.21526 8.95718C6.11248 8.99976 5.99938 9.0109 5.89026 8.98919C5.78115 8.96749 5.68092 8.91391 5.60225 8.83525C5.52359 8.75658 5.47001 8.65635 5.44831 8.54724C5.42661 8.43812 5.43775 8.32502 5.48032 8.22224C5.52289 8.11946 5.59499 8.03161 5.68749 7.9698C5.78 7.90799 5.88875 7.875 6 7.875C6.14919 7.875 6.29226 7.93426 6.39775 8.03975C6.50324 8.14524 6.5625 8.28832 6.5625 8.4375ZM6 3.375C4.96594 3.375 4.125 4.13203 4.125 5.0625V5.25C4.125 5.34946 4.16451 5.44484 4.23484 5.51516C4.30516 5.58549 4.40055 5.625 4.5 5.625C4.59946 5.625 4.69484 5.58549 4.76517 5.51516C4.83549 5.44484 4.875 5.34946 4.875 5.25V5.0625C4.875 4.54688 5.37985 4.125 6 4.125C6.62016 4.125 7.125 4.54688 7.125 5.0625C7.125 5.57812 6.62016 6 6 6C5.90055 6 5.80516 6.03951 5.73484 6.10983C5.66451 6.18016 5.625 6.27554 5.625 6.375V6.75C5.625 6.84946 5.66451 6.94484 5.73484 7.01517C5.80516 7.08549 5.90055 7.125 6 7.125C6.09946 7.125 6.19484 7.08549 6.26517 7.01517C6.33549 6.94484 6.375 6.84946 6.375 6.75V6.71625C7.23 6.55922 7.875 5.87719 7.875 5.0625C7.875 4.13203 7.03406 3.375 6 3.375ZM10.875 6C10.875 6.96418 10.5891 7.90671 10.0534 8.7084C9.51774 9.51009 8.75637 10.1349 7.86558 10.5039C6.97479 10.8729 5.99459 10.9694 5.04894 10.7813C4.10328 10.5932 3.23464 10.1289 2.55286 9.44715C1.87108 8.76536 1.40678 7.89672 1.21867 6.95107C1.03057 6.00541 1.12711 5.02521 1.49609 4.13442C1.86507 3.24363 2.48991 2.48226 3.2916 1.94659C4.09329 1.41091 5.03582 1.125 6 1.125C7.29251 1.12636 8.5317 1.64042 9.44564 2.55436C10.3596 3.46831 10.8736 4.70749 10.875 6ZM10.125 6C10.125 5.18415 9.88308 4.38663 9.42981 3.70827C8.97655 3.02992 8.33232 2.50121 7.57857 2.189C6.82483 1.87679 5.99543 1.7951 5.19525 1.95426C4.39508 2.11342 3.66008 2.50629 3.08319 3.08318C2.5063 3.66008 2.11343 4.39508 1.95426 5.19525C1.7951 5.99542 1.87679 6.82482 2.189 7.57857C2.50121 8.33231 3.02992 8.97655 3.70827 9.42981C4.38663 9.88307 5.18415 10.125 6 10.125C7.09364 10.1238 8.14213 9.68876 8.91545 8.91545C9.68877 8.14213 10.1238 7.09364 10.125 6Z" fill="#124A73"/>
</svg>
