<svg width="18" height="18" viewBox="0 0 18 18" fill="none" xmlns="http://www.w3.org/2000/svg">
<path d="M9.47087 11.1143C9.53949 11.63 9.50012 12.1544 9.35526 12.6541C9.21041 13.1538 8.96323 13.6179 8.62943 14.0169C8.29564 14.416 7.88251 14.7412 7.4163 14.972C6.95009 15.2028 6.44098 15.3342 5.9213 15.3577C5.40162 15.3812 4.88274 15.2963 4.3976 15.1085C3.91246 14.9207 3.47167 14.6341 3.10323 14.2668C2.73479 13.8995 2.44674 13.4596 2.25738 12.9751C2.06803 12.4905 1.9815 11.9718 2.0033 11.452L7.19164 9.96984C7.29502 10.3319 7.51357 10.6504 7.81418 10.8771C8.1148 11.1038 8.4811 11.2263 8.85759 11.2261C9.06718 11.2264 9.27505 11.1883 9.47087 11.1136V11.1143ZM7.14835 9.21578C7.18689 8.97923 7.27411 8.75327 7.40448 8.55218C7.53484 8.35109 7.70553 8.17925 7.90572 8.04753C8.10592 7.91581 8.33127 7.82708 8.56752 7.78696C8.80377 7.74684 9.04578 7.7562 9.27823 7.81444L10.5892 2.57928C10.1499 2.30195 9.65782 2.11888 9.14409 2.04167C8.63037 1.96445 8.10621 1.99478 7.60481 2.13073C7.10342 2.26668 6.63572 2.50528 6.23133 2.83143C5.82695 3.15758 5.4947 3.56417 5.25562 4.02543C5.01654 4.4867 4.87585 4.9926 4.84246 5.51108C4.80906 6.02956 4.88369 6.54933 5.06162 7.03746C5.23955 7.52559 5.5169 7.97145 5.87611 8.34679C6.23531 8.72213 6.66854 9.01878 7.14835 9.21794V9.21578ZM14.1246 7.87073C13.4796 7.49812 12.7382 7.32597 11.995 7.37622C11.2518 7.42646 10.5404 7.69683 9.95139 8.15287C10.1368 8.30451 10.2887 8.49297 10.3976 8.70633C10.5064 8.91969 10.5698 9.15331 10.5838 9.39243C10.5978 9.63155 10.562 9.87097 10.4787 10.0956C10.3954 10.3201 10.2665 10.525 10.1 10.6972L13.9774 14.4495C14.5747 14.1393 15.0775 13.6741 15.4332 13.1027C15.7889 12.5313 15.9843 11.8747 15.9991 11.2018C16.0139 10.5289 15.8474 9.86435 15.517 9.27791C15.1867 8.69146 14.7048 8.20468 14.1217 7.86856L14.1246 7.87073Z" stroke="#124A73" stroke-width="1.5" stroke-linejoin="round"/>
</svg>
