<svg width="18" height="18" viewBox="0 0 18 18" fill="none" xmlns="http://www.w3.org/2000/svg">
<path d="M14.4974 5.02047L14.8124 3.98772C14.8412 3.89351 14.8883 3.8059 14.9509 3.72989C15.0136 3.65388 15.0906 3.59096 15.1776 3.54471C15.2646 3.49847 15.3598 3.46981 15.4579 3.46038C15.5559 3.45094 15.6549 3.46091 15.7491 3.48972C15.8433 3.51853 15.9309 3.56561 16.0069 3.62828C16.0829 3.69095 16.1459 3.76797 16.1921 3.85496C16.2384 3.94194 16.267 4.03718 16.2765 4.13524C16.2859 4.2333 16.2759 4.33226 16.2471 4.42647L15.3696 7.29522C15.3115 7.48533 15.1802 7.64458 15.0047 7.73796C14.8292 7.83134 14.6238 7.85122 14.4336 7.79322L11.5649 6.91572C11.4687 6.88865 11.3789 6.84263 11.3007 6.78038C11.2226 6.71812 11.1577 6.64087 11.1098 6.55318C11.0619 6.46548 11.032 6.36911 11.0219 6.26971C11.0118 6.17031 11.0217 6.06989 11.0509 5.97435C11.0801 5.8788 11.1282 5.79007 11.1922 5.71334C11.2562 5.63662 11.3348 5.57346 11.4236 5.52757C11.5123 5.48168 11.6094 5.45398 11.709 5.44611C11.8086 5.43823 11.9088 5.45034 12.0036 5.48172L13.2576 5.86497C12.7032 5.02414 11.93 4.35048 11.0212 3.91653C10.1123 3.48259 9.1023 3.3048 8.0999 3.40233C7.0975 3.49985 6.1407 3.86899 5.33255 4.46998C4.52439 5.07097 3.8955 5.88105 3.51361 6.81297L3.31861 7.28772C3.28315 7.38144 3.22926 7.46709 3.16014 7.53964C3.09102 7.61218 3.00806 7.67014 2.91617 7.71009C2.82427 7.75004 2.72531 7.77117 2.62511 7.77223C2.52491 7.77329 2.42552 7.75427 2.3328 7.71628C2.24008 7.67829 2.15591 7.6221 2.08527 7.55104C2.01462 7.47998 1.95893 7.39548 1.92149 7.30254C1.88405 7.2096 1.86561 7.11009 1.86726 7.00991C1.86891 6.90972 1.89062 6.81088 1.93111 6.71922L2.12611 6.24447C2.61078 5.06193 3.4084 4.03373 4.43332 3.27029C5.45824 2.50684 6.67175 2.03697 7.94355 1.91114C9.21535 1.78531 10.4974 2.00827 11.6521 2.55607C12.8067 3.10387 13.7904 3.95583 14.4974 5.02047ZM2.85586 12.9802L2.61061 13.9635C2.58867 14.061 2.54745 14.1531 2.48939 14.2345C2.43133 14.3158 2.35759 14.3848 2.27251 14.4372C2.18742 14.4897 2.09272 14.5246 1.99395 14.5399C1.89518 14.5553 1.79434 14.5507 1.69736 14.5265C1.60038 14.5023 1.50921 14.459 1.42922 14.3991C1.34923 14.3391 1.28202 14.2638 1.23155 14.1775C1.18107 14.0913 1.14836 13.9958 1.13532 13.8967C1.12228 13.7976 1.12918 13.6969 1.15561 13.6005L1.88086 10.6905C1.90533 10.5914 1.94976 10.4983 2.01144 10.417C2.07311 10.3357 2.15073 10.2679 2.23955 10.2176C2.32837 10.1673 2.42651 10.1357 2.52797 10.1247C2.62943 10.1137 2.73207 10.1234 2.82961 10.1535L5.70061 10.869C5.89365 10.9171 6.05967 11.04 6.16213 11.2105C6.2646 11.381 6.29512 11.5853 6.24698 11.7783C6.19885 11.9714 6.076 12.1374 5.90545 12.2399C5.73491 12.3423 5.53065 12.3729 5.33761 12.3247L3.99811 11.991C4.57075 12.8676 5.38018 13.5639 6.33252 13.9992C7.28485 14.4344 8.34107 14.5908 9.37867 14.4501C10.4163 14.3094 11.3927 13.8774 12.1948 13.2043C12.9968 12.5312 13.5916 11.6444 13.9101 10.647C13.9706 10.4574 14.1039 10.2996 14.2807 10.2083C14.3682 10.1631 14.4638 10.1356 14.562 10.1274C14.6602 10.1191 14.759 10.1303 14.8529 10.1602C14.9467 10.1902 15.0338 10.2383 15.109 10.3019C15.1843 10.3655 15.2463 10.4432 15.2915 10.5308C15.3367 10.6183 15.3642 10.7139 15.3725 10.8121C15.3807 10.9103 15.3695 11.0091 15.3396 11.103C15.0274 12.0824 14.5043 12.9816 13.8072 13.7372C13.1101 14.4927 12.2558 15.0863 11.3046 15.4762C9.82247 16.0834 8.17758 16.167 6.64152 15.7132C5.10547 15.2594 3.77008 14.2954 2.85586 12.9802Z" fill="#124A73"/>
</svg>
