<svg width="18" height="18" viewBox="0 0 18 18" fill="none" xmlns="http://www.w3.org/2000/svg">
<g clip-path="url(#clip0_558_349)">
<path d="M8.27778 2.5C8.46186 2.5002 8.63891 2.57069 8.77277 2.69706C8.90662 2.82342 8.98717 2.99613 8.99796 3.1799C9.00875 3.36366 8.94896 3.54461 8.83081 3.68577C8.71266 3.82693 8.54507 3.91765 8.36228 3.93939L8.27778 3.94444H3.94444V14.0556H14.0556V9.72222C14.0558 9.53814 14.1262 9.36109 14.2526 9.22723C14.379 9.09338 14.5517 9.01283 14.7355 9.00204C14.9192 8.99125 15.1002 9.05104 15.2413 9.16919C15.3825 9.28734 15.4732 9.45493 15.4949 9.63772L15.5 9.72222V14.0556C15.5001 14.42 15.3625 14.771 15.1147 15.0382C14.8669 15.3054 14.5273 15.4691 14.1639 15.4964L14.0556 15.5H3.94444C3.58003 15.5001 3.22904 15.3625 2.96183 15.1147C2.69462 14.8669 2.53094 14.5273 2.50361 14.1639L2.5 14.0556V3.94444C2.49988 3.58003 2.63752 3.22904 2.8853 2.96183C3.13309 2.69462 3.47272 2.53094 3.83611 2.50361L3.94444 2.5H8.27778ZM14.5972 2.5C15.0956 2.5 15.5 2.90444 15.5 3.40278V6.11111C15.5 6.30266 15.4239 6.48636 15.2885 6.6218C15.153 6.75724 14.9693 6.83333 14.7778 6.83333C14.5862 6.83333 14.4025 6.75724 14.2671 6.6218C14.1316 6.48636 14.0556 6.30266 14.0556 6.11111V4.96567L9.299 9.72222H10.4444C10.636 9.72222 10.8197 9.79831 10.9551 9.93376C11.0906 10.0692 11.1667 10.2529 11.1667 10.4444C11.1667 10.636 11.0906 10.8197 10.9551 10.9551C10.8197 11.0906 10.636 11.1667 10.4444 11.1667H7.73611C7.23778 11.1667 6.83333 10.7622 6.83333 10.2639V7.55556C6.83333 7.36401 6.90942 7.18031 7.04487 7.04487C7.18031 6.90942 7.36401 6.83333 7.55556 6.83333C7.7471 6.83333 7.9308 6.90942 8.06624 7.04487C8.20169 7.18031 8.27778 7.36401 8.27778 7.55556V8.701L13.0343 3.94444H11.8889C11.6973 3.94444 11.5136 3.86835 11.3782 3.73291C11.2428 3.59747 11.1667 3.41377 11.1667 3.22222C11.1667 3.03068 11.2428 2.84698 11.3782 2.71153C11.5136 2.57609 11.6973 2.5 11.8889 2.5H14.5972Z" fill="#124A73"/>
</g>
<defs>
<clipPath id="clip0_558_349">
<rect width="18" height="18" fill="white"/>
</clipPath>
</defs>
</svg>
