<svg width="18" height="18" viewBox="0 0 18 18" fill="none" xmlns="http://www.w3.org/2000/svg">
<path d="M4.1 16C3.51667 16 3.02083 15.7958 2.6125 15.3875C2.20417 14.9792 2 14.4833 2 13.9C2 13.445 2.13137 13.0395 2.3941 12.6834C2.65683 12.3273 2.99213 12.0737 3.4 11.9225V6.0775C2.99167 5.92583 2.65613 5.67197 2.3934 5.3159C2.13067 4.95983 1.99953 4.55453 2 4.1C2 3.51667 2.20417 3.02083 2.6125 2.6125C3.02083 2.20417 3.51667 2 4.1 2C4.555 2 4.96053 2.13137 5.3166 2.3941C5.67267 2.65683 5.92607 2.99213 6.0768 3.4H11.9218C12.0618 2.99167 12.3098 2.65613 12.6659 2.3934C13.022 2.13067 13.4333 1.99953 13.9 2C14.4833 2 14.9792 2.20417 15.3875 2.6125C15.7958 3.02083 16 3.51667 16 4.1C16 4.56667 15.8686 4.97803 15.6059 5.3341C15.3432 5.69017 15.0079 5.93797 14.6 6.0775V11.9225C15.0083 12.0742 15.3439 12.328 15.6066 12.6841C15.8693 13.0402 16.0005 13.4455 16 13.9C16 14.4833 15.7958 14.9792 15.3875 15.3875C14.9792 15.7958 14.4833 16 13.9 16C13.445 16 13.0395 15.8686 12.6834 15.6059C12.3273 15.3432 12.0737 15.0079 11.9225 14.6H6.0775C5.92583 15.0083 5.67197 15.3439 5.3159 15.6066C4.95983 15.8693 4.55453 16.0005 4.1 16ZM6.0775 13.2H11.9225C12.0275 12.8967 12.1908 12.6342 12.4125 12.4125C12.6342 12.1908 12.8967 12.0275 13.2 11.9225V6.0775C12.8967 5.9725 12.6342 5.80917 12.4125 5.5875C12.1908 5.36583 12.0275 5.10333 11.9225 4.8H6.0775C5.9725 5.10333 5.80917 5.36583 5.5875 5.5875C5.36583 5.80917 5.10333 5.9725 4.8 6.0775V11.9225C5.10333 12.0275 5.36583 12.1908 5.5875 12.4125C5.80917 12.6342 5.9725 12.8967 6.0775 13.2Z" fill="#124A73"/>
</svg>
