<svg width="51" height="27" viewBox="0 0 51 27" fill="none" xmlns="http://www.w3.org/2000/svg">
<path d="M8.36907 13.418H11.9079L7.00919 19.3636L12.835 26.0719H8.87903L3.62494 19.9395V26.0719H0.457031V13.418H3.62494V19.2546L8.36907 13.418Z" fill="white"/>
<path d="M21.2717 26.0719H17.9932L23.5198 13.418H26.8607L32.4342 26.0719H29.1713L25.2059 16.527L23.9569 19.5584L21.2717 26.0719Z" fill="white"/>
<path d="M48.0163 13.418H51.0001V26.0719H48.3118L41.591 18.2118V26.0719H38.6221V13.418H41.2661L48.0163 21.3092V13.418Z" fill="white"/>
<path d="M6.91095 7.33468L6.90122 3.24676L4.89619 6.61443H4.18567L2.19038 3.33436V7.33468H0.710938V0.521484H2.01518L4.56526 4.7554L7.07641 0.521484H8.37092L8.39039 7.33468H6.91095Z" fill="white"/>
<path d="M14.9805 5.87471H11.8172L11.2138 7.33468H9.59806L12.6348 0.521484H14.1921L17.2386 7.33468H15.5839L14.9805 5.87471ZM14.4841 4.67754L13.4037 2.06905L12.3233 4.67754H14.4841Z" fill="white"/>
<path d="M18.4321 0.521484H21.5272C22.267 0.521484 22.9191 0.664237 23.4836 0.949743C24.0546 1.22876 24.4958 1.62457 24.8073 2.13719C25.1253 2.6498 25.2842 3.24676 25.2842 3.92808C25.2842 4.6094 25.1253 5.20637 24.8073 5.71898C24.4958 6.23159 24.0546 6.63065 23.4836 6.91616C22.9191 7.19518 22.267 7.33468 21.5272 7.33468H18.4321V0.521484ZM21.4494 6.04018C22.1307 6.04018 22.6725 5.852 23.0748 5.47565C23.4836 5.09282 23.688 4.57696 23.688 3.92808C23.688 3.27921 23.4836 2.7666 23.0748 2.39025C22.6725 2.00741 22.1307 1.81599 21.4494 1.81599H20.0089V6.04018H21.4494Z" fill="white"/>
<path d="M32.2354 6.06938V7.33468H26.96V0.521484H32.1088V1.78679H28.527V3.26623H31.6903V4.49261H28.527V6.06938H32.2354Z" fill="white"/>
<path d="M42.2226 3.79182C42.6119 3.91511 42.9169 4.12275 43.1375 4.41474C43.3581 4.70025 43.4684 5.05388 43.4684 5.47565C43.4684 6.07262 43.2348 6.53332 42.7676 6.85776C42.3069 7.17571 41.6321 7.33468 40.7431 7.33468H37.2197V0.521484H40.5485C41.379 0.521484 42.0149 0.680459 42.4562 0.998409C42.9039 1.31636 43.1277 1.74786 43.1277 2.29292C43.1277 2.62384 43.0466 2.91908 42.8844 3.17863C42.7287 3.43818 42.5081 3.64258 42.2226 3.79182ZM38.7868 1.70893V3.3149H40.3538C40.7431 3.3149 41.0384 3.24676 41.2395 3.1105C41.4407 2.97424 41.5412 2.77308 41.5412 2.50705C41.5412 2.24101 41.4407 2.0431 41.2395 1.91332C41.0384 1.77706 40.7431 1.70893 40.3538 1.70893H38.7868ZM40.6263 6.14724C41.0416 6.14724 41.3531 6.07911 41.5607 5.94284C41.7748 5.80658 41.8819 5.5957 41.8819 5.31019C41.8819 4.74567 41.4634 4.46341 40.6263 4.46341H38.7868V6.14724H40.6263Z" fill="white"/>
<path d="M48.2766 4.92086V7.33468H46.6998V4.9014L44.0621 0.521484H45.7362L47.5563 3.54849L49.3764 0.521484H50.924L48.2766 4.92086Z" fill="white"/>
</svg>
