<svg width="380" height="351" viewBox="0 0 380 351" fill="none" xmlns="http://www.w3.org/2000/svg">
<g clip-path="url(#clip0_269_4085)">
<path d="M186.238 329.816C154.272 329.816 125.489 322.712 99.887 308.506C74.4332 294.299 54.5288 274.616 40.174 249.459C25.9672 224.301 18.8638 196.035 18.8638 164.662C18.8638 133.288 26.0412 105.023 40.396 79.8647C54.7508 54.7069 74.6552 35.0985 100.109 21.0397C125.711 6.83288 154.42 -0.270522 186.238 -0.270522C210.064 -0.270522 232.336 3.87313 253.054 12.1604C273.772 20.4477 291.457 31.8428 306.108 46.3456C320.906 60.8483 332.45 78.3109 340.737 98.7332C349.172 119.155 353.39 141.132 353.39 164.662C353.39 188.192 349.172 210.242 340.737 230.812C332.45 251.234 320.906 268.697 306.108 283.2C291.457 297.702 273.772 309.098 253.054 317.385C232.336 325.672 210.064 329.816 186.238 329.816ZM114.76 90.7418C96.2613 109.98 87.0121 134.62 87.0121 164.662C87.0121 194.703 96.2613 219.343 114.76 238.581C133.406 257.82 157.232 267.439 186.238 267.439C215.095 267.439 238.773 257.82 257.272 238.581C275.918 219.195 285.241 194.555 285.241 164.662C285.241 134.768 275.918 110.202 257.272 90.9638C238.773 71.5774 215.095 61.8843 186.238 61.8843C157.232 61.8843 133.406 71.5035 114.76 90.7418Z" fill="#124A73"/>
</g>
<g clip-path="url(#clip1_269_4085)">
<path d="M186.238 341.381C154.272 341.381 125.489 334.277 99.887 320.07C74.4332 305.864 54.5288 286.181 40.174 261.023C25.9672 235.866 18.8638 207.6 18.8638 176.227C18.8638 144.853 26.0412 116.588 40.396 91.4297C54.7508 66.2718 74.6552 46.6634 100.109 32.6046C125.711 18.3978 154.42 11.2944 186.238 11.2944C210.064 11.2944 232.336 15.4381 253.054 23.7254C273.772 32.0127 291.457 43.4077 306.108 57.9105C320.906 72.4133 332.45 89.8758 340.737 110.298C349.172 130.72 353.39 152.697 353.39 176.227C353.39 199.757 349.172 221.807 340.737 242.377C332.45 262.799 320.906 280.262 306.108 294.765C291.457 309.267 273.772 320.662 253.054 328.95C232.336 337.237 210.064 341.381 186.238 341.381ZM114.76 102.307C96.2613 121.545 87.0121 146.185 87.0121 176.227C87.0121 206.268 96.2613 230.908 114.76 250.146C133.406 269.385 157.232 279.004 186.238 279.004C215.095 279.004 238.773 269.385 257.272 250.146C275.918 230.76 285.241 206.12 285.241 176.227C285.241 146.333 275.918 121.767 257.272 102.529C238.773 83.1424 215.095 73.4492 186.238 73.4492C157.232 73.4492 133.406 83.0684 114.76 102.307Z" fill="#124A73"/>
</g>
<defs>
<clipPath id="clip0_269_4085">
<rect width="199.585" height="344.158" fill="white"/>
</clipPath>
<clipPath id="clip1_269_4085">
<rect width="179.415" height="344.158" fill="white" transform="matrix(-1 0 0 1 379.002 6.34229)"/>
</clipPath>
</defs>
</svg>
