<svg width="314" height="346" viewBox="0 0 314 346" fill="none" xmlns="http://www.w3.org/2000/svg">
<g clip-path="url(#clip0_413_3368)">
<path d="M143.158 329.068C119.628 329.068 96.7637 325.368 74.5656 317.969C52.3675 310.421 32.6851 299.914 15.5186 286.448L45.93 237.39C75.9715 258.848 108.233 269.577 142.714 269.577C160.62 269.577 174.457 266.765 184.224 261.142C194.14 255.518 199.097 247.601 199.097 237.39C199.097 227.622 193.696 219.187 182.893 212.084C172.237 204.98 153.961 197.655 128.063 190.108C93.434 180.34 68.0541 167.687 51.9235 152.149C35.7929 136.462 27.7275 116.484 27.7275 92.2138C27.7275 65.5761 38.0127 44.0439 58.5829 27.6172C79.3012 11.0426 106.901 2.75533 141.382 2.75533C162.544 2.75533 183.188 6.23304 203.315 13.1885C223.589 20.1439 242.014 29.985 258.588 42.712L226.845 91.3259C216.19 82.2986 203.167 75.0473 187.776 69.5717C172.385 64.0962 157.217 61.3584 142.27 61.3584C127.471 61.3584 115.706 64.0222 106.975 69.3497C98.3916 74.6773 94.1 81.8547 94.1 90.8819C94.1 99.9092 98.8356 107.753 108.307 114.412C117.778 120.923 135.167 128.101 160.472 135.944C197.321 146.895 224.255 160.362 241.274 176.345C258.292 192.179 266.801 212.084 266.801 236.058C266.801 263.583 255.406 286.004 232.616 303.318C209.826 320.485 180.007 329.068 143.158 329.068Z" fill="#124A73"/>
</g>
<g clip-path="url(#clip1_413_3368)">
<path d="M143.157 333.632C119.627 333.632 96.7628 329.933 74.5646 322.533C52.3665 314.986 32.6841 304.479 15.5176 291.012L45.929 241.954C75.9705 263.412 108.232 274.141 142.713 274.141C160.619 274.141 174.456 271.33 184.223 265.706C194.139 260.083 199.096 252.165 199.096 241.954C199.096 232.187 193.695 223.752 182.892 216.648C172.236 209.545 153.96 202.219 128.062 194.672C93.433 184.905 68.0532 172.252 51.9225 156.713C35.7919 141.027 27.7266 121.048 27.7266 96.7783C27.7266 70.1405 38.0117 48.6083 58.582 32.1817C79.3002 15.6071 106.9 7.31978 141.381 7.31978C162.543 7.31978 183.188 10.7975 203.314 17.7529C223.588 24.7083 242.013 34.5495 258.587 47.2764L226.844 95.8903C216.189 86.8631 203.166 79.6117 187.775 74.1362C172.384 68.6606 157.216 65.9229 142.269 65.9229C127.47 65.9229 115.705 68.5866 106.974 73.9142C98.3906 79.2417 94.099 86.4191 94.099 95.4464C94.099 104.474 98.8346 112.317 108.306 118.976C117.777 125.488 135.166 132.665 160.471 140.509C197.32 151.46 224.254 164.927 241.273 180.909C258.291 196.744 266.8 216.648 266.8 240.622C266.8 268.148 255.405 290.568 232.615 307.883C209.825 325.049 180.006 333.632 143.157 333.632Z" fill="#124A73"/>
</g>
<defs>
<clipPath id="clip0_413_3368">
<rect width="165.014" height="344.158" fill="white" transform="translate(0.649414 1.25)"/>
</clipPath>
<clipPath id="clip1_413_3368">
<rect width="148.337" height="344.158" fill="white" transform="matrix(-1 0 0 1 314 0.591797)"/>
</clipPath>
</defs>
</svg>
