<svg width="314" height="352" viewBox="0 0 314 352" fill="none" xmlns="http://www.w3.org/2000/svg">
<g clip-path="url(#clip0_413_3321)">
<path d="M261.712 294.827C237.738 318.357 205.403 330.122 164.707 330.122C124.01 330.122 91.6007 318.357 67.4787 294.827C43.5047 271.297 31.5177 239.257 31.5177 198.709V6.25099H98.3341V193.603C98.3341 217.873 104.032 236.298 115.427 248.877C126.822 261.456 143.248 267.745 164.707 267.745C186.165 267.745 202.591 261.456 213.986 248.877C225.381 236.298 231.079 217.873 231.079 193.603V6.25099H297.895V198.709C297.895 239.257 285.834 271.297 261.712 294.827Z" fill="#124A73"/>
</g>
<g clip-path="url(#clip1_413_3321)">
<path d="M261.711 306.391C237.737 329.921 205.402 341.686 164.706 341.686C124.009 341.686 91.5997 329.921 67.4778 306.391C43.5038 282.861 31.5168 250.822 31.5168 210.273V17.8154H98.3332V205.168C98.3332 229.438 104.031 247.862 115.426 260.441C126.821 273.02 143.247 279.309 164.706 279.309C186.164 279.309 202.59 273.02 213.985 260.441C225.38 247.862 231.078 229.438 231.078 205.168V17.8154H297.894V210.273C297.894 250.822 285.833 282.861 261.711 306.391Z" fill="#124A73"/>
</g>
<defs>
<clipPath id="clip0_413_3321">
<rect width="165.014" height="344.158" fill="white" transform="translate(0 0.75)"/>
</clipPath>
<clipPath id="clip1_413_3321">
<rect width="148.337" height="344.158" fill="white" transform="matrix(-1 0 0 1 313.351 7.0918)"/>
</clipPath>
</defs>
</svg>
