<svg width="314" height="346" viewBox="0 0 314 346" fill="none" xmlns="http://www.w3.org/2000/svg">
<g clip-path="url(#clip0_413_3361)">
<path d="M34.8475 325.072V6.75099H157.159C193.268 6.75099 221.978 16.8881 243.288 37.1624C264.598 57.2887 275.253 84.4445 275.253 118.63C275.253 152.371 264.598 179.378 243.288 199.653C221.978 219.927 193.268 230.064 157.159 230.064H101.664V325.072H34.8475ZM100.776 172.349H150.722C168.776 172.349 182.909 167.613 193.12 158.142C203.331 148.671 208.437 135.648 208.437 119.074C208.437 102.203 203.331 89.1061 193.12 79.7829C182.909 70.3117 168.776 65.5761 150.722 65.5761H100.776V172.349Z" fill="#124A73"/>
</g>
<g clip-path="url(#clip1_413_3361)">
<path d="M34.8465 329.637V11.3154H157.158C193.267 11.3154 221.977 21.4526 243.287 41.7269C264.597 61.8532 275.252 89.0089 275.252 123.194C275.252 156.935 264.597 183.943 243.287 204.217C221.977 224.492 193.267 234.629 157.158 234.629H101.663V329.637H34.8465ZM100.775 176.914H150.721C168.775 176.914 182.908 172.178 193.119 162.707C203.33 153.236 208.436 140.213 208.436 123.638C208.436 106.767 203.33 93.6705 193.119 84.3473C182.908 74.8761 168.775 70.1405 150.721 70.1405H100.775V176.914Z" fill="#124A73"/>
</g>
<defs>
<clipPath id="clip0_413_3361">
<rect width="165.014" height="344.158" fill="white" transform="translate(0 1.25)"/>
</clipPath>
<clipPath id="clip1_413_3361">
<rect width="148.337" height="344.158" fill="white" transform="matrix(-1 0 0 1 313.351 0.591797)"/>
</clipPath>
</defs>
</svg>
