<svg width="749" height="417" viewBox="0 0 749 417" fill="none" xmlns="http://www.w3.org/2000/svg">
<g opacity="0.3">
<path d="M195.481 191.398C190.85 193.982 186.889 197.88 184.982 202.829C183.061 207.814 183.418 213.378 185.05 218.465C186.638 223.414 189.877 227.576 193.957 230.797C198.033 234.016 202.817 236.472 208.009 236.594C213.149 236.715 217.929 234.392 222.151 231.459C226.302 228.575 229.766 224.825 231.681 220.147C233.644 215.353 234.628 209.947 232.967 205.039C231.348 200.254 227.037 197.112 222.902 194.209C218.99 191.462 214.72 189.373 209.965 188.886C204.968 188.373 199.867 188.95 195.481 191.398Z" fill="#FFA07D"/>
<path d="M195.481 191.398C190.85 193.982 186.889 197.88 184.982 202.829C183.061 207.814 183.418 213.378 185.05 218.465C186.638 223.414 189.877 227.576 193.957 230.797C198.033 234.016 202.817 236.472 208.009 236.594C213.149 236.715 217.929 234.392 222.151 231.459C226.302 228.575 229.766 224.825 231.681 220.147C233.644 215.353 234.628 209.947 232.967 205.039C231.348 200.254 227.037 197.112 222.902 194.209C218.99 191.462 214.72 189.373 209.965 188.886C204.968 188.373 199.867 188.95 195.481 191.398Z" fill="url(#paint0_radial_552_2950)"/>
</g>
<g opacity="0.3">
<path d="M313.001 4.83891C308.527 9.71072 309.876 17.0515 310.913 23.5844C311.891 29.7483 313.435 36.063 318.529 39.6683C324.025 43.5572 331.082 44.3619 337.528 42.4194C344.488 40.3219 351.625 36.1822 353.447 29.1452C355.187 22.4269 349.887 16.4633 345.679 10.9452C342.029 6.15977 337.749 1.91146 331.833 0.805944C325.194 -0.434657 317.57 -0.135415 313.001 4.83891Z" fill="#00DB2C"/>
<path d="M313.001 4.83891C308.527 9.71072 309.876 17.0515 310.913 23.5844C311.891 29.7483 313.435 36.063 318.529 39.6683C324.025 43.5572 331.082 44.3619 337.528 42.4194C344.488 40.3219 351.625 36.1822 353.447 29.1452C355.187 22.4269 349.887 16.4633 345.679 10.9452C342.029 6.15977 337.749 1.91146 331.833 0.805944C325.194 -0.434657 317.57 -0.135415 313.001 4.83891Z" fill="url(#paint1_radial_552_2950)"/>
</g>
<g opacity="0.3">
<path d="M67.9322 43.625C64.1597 44.5287 61.2865 47.6755 58.9075 50.7397C56.6078 53.7018 55.0194 57.2213 54.4934 60.9344C53.9956 64.4476 55.3111 67.8559 55.989 71.3389C56.6478 74.7237 56.5047 78.4053 58.448 81.2538C60.3949 84.1075 63.8187 85.4205 66.7937 87.1762C69.8137 88.9583 72.6499 91.4274 76.1461 91.6978C79.6487 91.9687 82.9613 90.2418 86.1032 88.6698C89.0975 87.1716 91.801 85.216 94.0528 82.738C96.3034 80.2614 97.8582 77.3303 99.1954 74.2626C100.65 70.9244 102.813 67.5168 102.256 63.9182C101.698 60.3193 98.4074 57.8871 96.209 54.9836C94.0848 52.1781 92.5752 48.6853 89.4695 47.0306C86.3749 45.3818 82.608 46.4395 79.1445 45.8919C75.3304 45.2888 71.6874 42.7254 67.9322 43.625Z" fill="#FFA07D"/>
<path d="M67.9322 43.625C64.1597 44.5287 61.2865 47.6755 58.9075 50.7397C56.6078 53.7018 55.0194 57.2213 54.4934 60.9344C53.9956 64.4476 55.3111 67.8559 55.989 71.3389C56.6478 74.7237 56.5047 78.4053 58.448 81.2538C60.3949 84.1075 63.8187 85.4205 66.7937 87.1762C69.8137 88.9583 72.6499 91.4274 76.1461 91.6978C79.6487 91.9687 82.9613 90.2418 86.1032 88.6698C89.0975 87.1716 91.801 85.216 94.0528 82.738C96.3034 80.2614 97.8582 77.3303 99.1954 74.2626C100.65 70.9244 102.813 67.5168 102.256 63.9182C101.698 60.3193 98.4074 57.8871 96.209 54.9836C94.0848 52.1781 92.5752 48.6853 89.4695 47.0306C86.3749 45.3818 82.608 46.4395 79.1445 45.8919C75.3304 45.2888 71.6874 42.7254 67.9322 43.625Z" fill="url(#paint2_radial_552_2950)"/>
</g>
<path d="M597.978 157.969C587.264 164.502 574.244 168.334 568.045 179.244C561.749 190.322 563.419 203.722 564.779 216.392C566.195 229.591 565.727 245.199 576.023 253.578C586.244 261.895 601.286 257.368 614.451 256.812C624.758 256.376 634.067 253.424 644.018 250.704C656.984 247.159 672.273 248.358 681.416 238.506C691.379 227.768 698.145 211.269 693.502 197.377C688.888 183.573 669.554 182.345 659.22 172.097C649.14 162.102 648.241 141.968 634.409 138.777C620.699 135.614 609.991 150.644 597.978 157.969Z" fill="#FF4D9C"/>
<path d="M597.978 157.969C587.264 164.502 574.244 168.334 568.045 179.244C561.749 190.322 563.419 203.722 564.779 216.392C566.195 229.591 565.727 245.199 576.023 253.578C586.244 261.895 601.286 257.368 614.451 256.812C624.758 256.376 634.067 253.424 644.018 250.704C656.984 247.159 672.273 248.358 681.416 238.506C691.379 227.768 698.145 211.269 693.502 197.377C688.888 183.573 669.554 182.345 659.22 172.097C649.14 162.102 648.241 141.968 634.409 138.777C620.699 135.614 609.991 150.644 597.978 157.969Z" fill="url(#paint3_radial_552_2950)"/>
<path d="M597.978 157.969C587.264 164.502 574.244 168.334 568.045 179.244C561.749 190.322 563.419 203.722 564.779 216.392C566.195 229.591 565.727 245.199 576.023 253.578C586.244 261.895 601.286 257.368 614.451 256.812C624.758 256.376 634.067 253.424 644.018 250.704C656.984 247.159 672.273 248.358 681.416 238.506C691.379 227.768 698.145 211.269 693.502 197.377C688.888 183.573 669.554 182.345 659.22 172.097C649.14 162.102 648.241 141.968 634.409 138.777C620.699 135.614 609.991 150.644 597.978 157.969Z" fill="url(#paint4_radial_552_2950)"/>
<path d="M597.978 157.969C587.264 164.502 574.244 168.334 568.045 179.244C561.749 190.322 563.419 203.722 564.779 216.392C566.195 229.591 565.727 245.199 576.023 253.578C586.244 261.895 601.286 257.368 614.451 256.812C624.758 256.376 634.067 253.424 644.018 250.704C656.984 247.159 672.273 248.358 681.416 238.506C691.379 227.768 698.145 211.269 693.502 197.377C688.888 183.573 669.554 182.345 659.22 172.097C649.14 162.102 648.241 141.968 634.409 138.777C620.699 135.614 609.991 150.644 597.978 157.969Z" fill="url(#paint5_radial_552_2950)"/>
<path opacity="0.3" d="M367.289 274.726C360.321 277.586 356.965 285.104 355.084 292.397C353.24 299.545 352.864 307.451 357.333 313.326C361.727 319.103 369.401 320.405 376.651 320.751C383.982 321.101 391.841 320.591 396.831 315.21C401.984 309.655 403.162 301.454 401.378 294.09C399.707 287.191 394.203 282.38 388.031 278.874C381.581 275.21 374.152 271.909 367.289 274.726Z" fill="url(#paint6_radial_552_2950)"/>
<g opacity="0.3">
<path d="M232.402 373.978C228.377 376.747 224.193 379.541 222.211 384.006C220.187 388.568 220.256 393.755 221.476 398.594C222.697 403.434 225.108 408.018 229.042 411.089C232.902 414.1 237.909 414.576 242.764 415.205C247.962 415.877 253.443 417.255 258.1 414.85C262.921 412.36 266.146 407.445 267.8 402.277C269.381 397.335 268.229 392.149 266.974 387.115C265.716 382.066 264.395 376.829 260.575 373.296C256.646 369.661 251.305 367.542 245.954 367.672C240.848 367.795 236.609 371.083 232.402 373.978Z" fill="#6842FF"/>
<path d="M232.402 373.978C228.377 376.747 224.193 379.541 222.211 384.006C220.187 388.568 220.256 393.755 221.476 398.594C222.697 403.434 225.108 408.018 229.042 411.089C232.902 414.1 237.909 414.576 242.764 415.205C247.962 415.877 253.443 417.255 258.1 414.85C262.921 412.36 266.146 407.445 267.8 402.277C269.381 397.335 268.229 392.149 266.974 387.115C265.716 382.066 264.395 376.829 260.575 373.296C256.646 369.661 251.305 367.542 245.954 367.672C240.848 367.795 236.609 371.083 232.402 373.978Z" fill="url(#paint7_radial_552_2950)"/>
</g>
<defs>
<radialGradient id="paint0_radial_552_2950" cx="0" cy="0" r="1" gradientUnits="userSpaceOnUse" gradientTransform="translate(208.745 205.801) rotate(153.89) scale(42.6735 43.2156)">
<stop stop-color="#DBD9F8"/>
<stop offset="1" stop-color="#5D6ADE"/>
</radialGradient>
<radialGradient id="paint1_radial_552_2950" cx="0" cy="0" r="1" gradientUnits="userSpaceOnUse" gradientTransform="translate(331.834 15.6215) rotate(153.188) scale(37.6028 38.7919)">
<stop stop-color="#DBD9F8"/>
<stop offset="1" stop-color="#5D6ADE"/>
</radialGradient>
<radialGradient id="paint2_radial_552_2950" cx="0" cy="0" r="1" gradientUnits="userSpaceOnUse" gradientTransform="translate(78.3645 60.6679) rotate(152.678) scale(41.2637 43.1205)">
<stop stop-color="#DBD9F8"/>
<stop offset="1" stop-color="#5D6ADE"/>
</radialGradient>
<radialGradient id="paint3_radial_552_2950" cx="0" cy="0" r="1" gradientUnits="userSpaceOnUse" gradientTransform="translate(629.253 181.236) rotate(154.871) scale(111.011 109.369)">
<stop stop-color="#DBD9F8"/>
<stop offset="1" stop-color="#5D6ADE"/>
</radialGradient>
<radialGradient id="paint4_radial_552_2950" cx="0" cy="0" r="1" gradientUnits="userSpaceOnUse" gradientTransform="translate(629.253 258.539) rotate(-163.448) scale(68.5862 67.5721)">
<stop offset="0.291667" stop-color="#DBD9F8"/>
<stop offset="1" stop-color="#5D6ADE" stop-opacity="0"/>
</radialGradient>
<radialGradient id="paint5_radial_552_2950" cx="0" cy="0" r="1" gradientUnits="userSpaceOnUse" gradientTransform="translate(580 201) rotate(111.801) scale(26.9258 26.5277)">
<stop offset="0.291667" stop-color="#DBD9F8"/>
<stop offset="1" stop-color="#DBD9F8" stop-opacity="0"/>
</radialGradient>
<radialGradient id="paint6_radial_552_2950" cx="0" cy="0" r="1" gradientUnits="userSpaceOnUse" gradientTransform="translate(377.973 290.5) rotate(153.418) scale(41.3428 42.3965)">
<stop stop-color="#DBD9F8"/>
<stop offset="1" stop-color="#5D6ADE"/>
</radialGradient>
<radialGradient id="paint7_radial_552_2950" cx="0" cy="0" r="1" gradientUnits="userSpaceOnUse" gradientTransform="translate(244.591 384.989) rotate(152.551) scale(41.3044 43.298)">
<stop stop-color="#DBD9F8"/>
<stop offset="1" stop-color="#5D6ADE"/>
</radialGradient>
</defs>
</svg>
